<svg xmlns="http://www.w3.org/2000/svg" version="1.1" xmlns:xlink="http://www.w3.org/1999/xlink" xmlns:svgjs="http://svgjs.dev/svgjs" width="1440" height="560" preserveAspectRatio="none" viewBox="0 0 1440 560">
    <g mask="url(&quot;#SvgjsMask1004&quot;)" fill="none">
        <rect width="1440" height="560" x="0" y="0" fill="#1e3266"></rect>
        <path d="M1512 560L0 560 L0 359.33Q36.89 276.22, 120 313.11Q165.06 238.17, 240 283.23Q341.42 264.65, 360 366.07Q386.38 320.44, 432 346.82Q472.82 267.64, 552 308.46Q595.78 280.24, 624 324.02Q690.47 270.49, 744 336.96Q781.27 254.23, 864 291.5Q954.63 262.13, 984 352.75Q994.87 291.62, 1056 302.48Q1082.29 256.77, 1128 283.06Q1219.28 254.34, 1248 345.61Q1266.83 292.44, 1320 311.27Q1403.83 275.1, 1440 358.92Q1466.29 313.21, 1512 339.49z" fill="#182f5d"></path>
        <path d="M1488 560L0 560 L0 435.51Q34.81 398.32, 72 433.14Q111.97 353.11, 192 393.07Q211.76 340.83, 264 360.59Q351.59 328.18, 384 415.78Q431.48 391.25, 456 438.73Q457.1 367.83, 528 368.93Q572.15 341.09, 600 385.24Q680.06 345.3, 720 425.35Q725.19 358.54, 792 363.73Q833.05 332.78, 864 373.83Q935.88 373.71, 936 445.59Q979.89 369.48, 1056 413.37Q1068.33 353.7, 1128 366.03Q1198.64 316.67, 1248 387.31Q1326.39 345.7, 1368 424.09Q1404.17 340.26, 1488 376.44z" fill="#25467d"></path>
        <path d="M1464 560L0 560 L0 485.55Q75.08 440.63, 120 515.71Q123.29 447, 192 450.29Q216.21 402.5, 264 426.71Q319.16 409.87, 336 465.02Q414.87 423.89, 456 502.76Q475.25 402, 576 421.25Q651.83 377.07, 696 452.9Q782.92 419.82, 816 506.74Q838.82 457.56, 888 480.38Q926.2 398.58, 1008 436.78Q1058.25 415.03, 1080 465.28Q1138.12 451.4, 1152 509.52Q1179.61 417.13, 1272 444.73Q1347.62 400.35, 1392 475.97Q1419.54 431.51, 1464 459.05z" fill="#356cb1"></path>
        <path d="M1464 560L0 560 L0 538.31Q46.15 512.46, 72 558.62Q146.36 512.98, 192 587.33Q243 518.33, 312 569.32Q317.25 502.58, 384 507.83Q450.86 454.69, 504 521.56Q590.49 488.05, 624 574.54Q627.58 506.12, 696 509.7Q746.93 440.63, 816 491.55Q873.26 476.81, 888 534.07Q946 520.08, 960 578.08Q981.37 527.45, 1032 548.82Q1071.42 468.25, 1152 507.67Q1194.88 478.54, 1224 521.42Q1298.97 476.38, 1344 551.35Q1409.34 496.69, 1464 562.04z" fill="white"></path>
    </g>
    <defs>
        <mask id="SvgjsMask1004">
            <rect width="1440" height="560" fill="#ffffff"></rect>
        </mask>
    </defs>
</svg>