<svg xmlns="http://www.w3.org/2000/svg" version="1.1" xmlns:xlink="http://www.w3.org/1999/xlink" xmlns:svgjs="http://svgjs.dev/svgjs" width="1440" height="560" preserveAspectRatio="none" viewBox="0 0 1440 560"><g mask="url(&quot;#SvgjsMask1081&quot;)" fill="none"><rect width="1440" height="560" x="0" y="0" fill="#0e2a47"></rect><g transform="translate(0, 0)" stroke-linecap="round"><path d="M320 219.21 L320 340.79" stroke-width="15" stroke="#3a7cc3"></path><path d="M340 139.82 L340 420.18" stroke-width="15" stroke="rgba(70, 89, 201, 1)"></path><path d="M360 211.31 L360 348.69" stroke-width="15" stroke="#3a7cc3"></path><path d="M380 232.18 L380 327.82" stroke-width="15" stroke="rgba(70, 89, 201, 1)"></path><path d="M400 257.98 L400 302.02" stroke-width="15" stroke="#3a7cc3"></path><path d="M420 262.24 L420 297.76" stroke-width="15" stroke="rgba(70, 89, 201, 1)"></path><path d="M440 207.8 L440 352.2" stroke-width="15" stroke="#3a7cc3"></path><path d="M460 229.38 L460 330.62" stroke-width="15" stroke="rgba(70, 89, 201, 1)"></path><path d="M480 195.4 L480 364.6" stroke-width="15" stroke="#3a7cc3"></path><path d="M500 161.15 L500 398.85" stroke-width="15" stroke="rgba(70, 89, 201, 1)"></path><path d="M520 250.18 L520 309.82" stroke-width="15" stroke="#3a7cc3"></path><path d="M540 222.13 L540 337.87" stroke-width="15" stroke="#3a7cc3"></path><path d="M560 193.97 L560 366.02" stroke-width="15" stroke="rgba(70, 89, 201, 1)"></path><path d="M580 179.28 L580 380.73" stroke-width="15" stroke="rgba(70, 89, 201, 1)"></path><path d="M600 262.81 L600 297.19" stroke-width="15" stroke="#3a7cc3"></path><path d="M620 151.42 L620 408.58" stroke-width="15" stroke="#3a7cc3"></path><path d="M640 263.87 L640 296.13" stroke-width="15" stroke="rgba(70, 89, 201, 1)"></path><path d="M660 255.31 L660 304.69" stroke-width="15" stroke="#3a7cc3"></path><path d="M680 132.94 L680 427.06" stroke-width="15" stroke="#3a7cc3"></path><path d="M700 136.76 L700 423.24" stroke-width="15" stroke="#3a7cc3"></path><path d="M720 164.99 L720 395.01" stroke-width="15" stroke="rgba(70, 89, 201, 1)"></path><path d="M740 176.06 L740 383.94" stroke-width="15" stroke="rgba(70, 89, 201, 1)"></path><path d="M760 255.63 L760 304.38" stroke-width="15" stroke="#3a7cc3"></path><path d="M780 239.54 L780 320.46" stroke-width="15" stroke="#3a7cc3"></path><path d="M800 196.76 L800 363.24" stroke-width="15" stroke="#3a7cc3"></path><path d="M820 240.75 L820 319.25" stroke-width="15" stroke="rgba(70, 89, 201, 1)"></path><path d="M840 242.1 L840 317.89" stroke-width="15" stroke="#3a7cc3"></path><path d="M860 255.6 L860 304.39" stroke-width="15" stroke="rgba(70, 89, 201, 1)"></path><path d="M880 204.92 L880 355.08" stroke-width="15" stroke="#3a7cc3"></path><path d="M900 150.63 L900 409.38" stroke-width="15" stroke="#3a7cc3"></path><path d="M920 191.25 L920 368.75" stroke-width="15" stroke="#3a7cc3"></path><path d="M940 228.35 L940 331.64" stroke-width="15" stroke="#3a7cc3"></path><path d="M960 261.32 L960 298.68" stroke-width="15" stroke="rgba(70, 89, 201, 1)"></path><path d="M980 189.59 L980 370.41" stroke-width="15" stroke="rgba(70, 89, 201, 1)"></path><path d="M1000 224.16 L1000 335.83" stroke-width="15" stroke="rgba(70, 89, 201, 1)"></path><path d="M1020 136.88 L1020 423.13" stroke-width="15" stroke="#3a7cc3"></path><path d="M1040 172.01 L1040 387.99" stroke-width="15" stroke="#3a7cc3"></path><path d="M1060 155.78 L1060 404.23" stroke-width="15" stroke="#3a7cc3"></path><path d="M1080 144.69 L1080 415.31" stroke-width="15" stroke="#3a7cc3"></path><path d="M1100 242.84 L1100 317.15" stroke-width="15" stroke="rgba(70, 89, 201, 1)"></path><path d="M1120 151.22 L1120 408.77" stroke-width="15" stroke="rgba(70, 89, 201, 1)"></path></g></g><defs><mask id="SvgjsMask1081"><rect width="1440" height="560" fill="#ffffff"></rect></mask></defs></svg>